<?xml version="1.0" standalone="no"?>
<!DOCTYPE svg PUBLIC "-//W3C//DTD SVG 20010904//EN"
 "http://www.w3.org/TR/2001/REC-SVG-20010904/DTD/svg10.dtd">
<svg version="1.0" xmlns="http://www.w3.org/2000/svg"
 width="192.000000pt" height="192.000000pt" viewBox="0 0 192.000000 192.000000"
 preserveAspectRatio="xMidYMid meet">
<metadata>
Created by potrace 1.14, written by Peter Selinger 2001-2017
</metadata>
<g transform="translate(0.000000,192.000000) scale(0.100000,-0.100000)"
fill="#000000" stroke="none">
<path d="M87 1362 c-16 -3 -17 -37 -17 -403 l0 -399 73 0 c211 -1 517 1 554 5
67 5 145 46 184 96 63 78 82 143 84 288 3 164 -32 270 -111 340 -54 48 -108
67 -194 70 -108 4 -555 6 -573 3z m648 -131 c83 -38 118 -113 118 -251 1 -133
-3 -157 -38 -213 -53 -89 -66 -92 -375 -92 l-265 0 0 288 0 287 260 0 c231 0
264 -3 300 -19z"/>
<path d="M1043 1362 c-95 -1 -173 -6 -173 -10 1 -4 22 -29 49 -56 l48 -48 274
0 c151 0 285 -5 299 -10 26 -10 79 -64 81 -82 5 -64 3 -81 -13 -106 -36 -60
-68 -70 -220 -70 -76 0 -138 -3 -138 -7 0 -3 91 -97 202 -207 l203 -201 97 -2
98 -3 0 55 c0 30 -3 55 -7 56 -5 0 -35 2 -68 3 -33 2 -63 4 -67 4 -5 1 -50 43
-100 94 l-93 92 45 13 c57 16 112 62 147 121 38 64 38 157 2 228 -29 56 -92
109 -149 124 -42 11 -253 16 -517 12z"/>
</g>
</svg>
